<mxfile host="Electron" modified="2023-12-10T16:19:20.362Z" agent="Mozilla/5.0 (Windows NT 10.0; Win64; x64) AppleWebKit/537.36 (KHTML, like Gecko) draw.io/22.0.3 Chrome/114.0.5735.289 Electron/25.8.4 Safari/537.36" etag="pBL5EIMp8bNgLuQSDc21" version="22.0.3" type="device">
  <diagram name="Seite-1" id="fG7y970iASwbzjEh-TU2">
    <mxGraphModel dx="2585" dy="1510" grid="1" gridSize="10" guides="1" tooltips="1" connect="1" arrows="1" fold="1" page="1" pageScale="1" pageWidth="827" pageHeight="1169" math="0" shadow="0">
      <root>
        <mxCell id="0" />
        <mxCell id="1" parent="0" />
        <mxCell id="kJQYeh6GCwO5_xTlgaux-1" value="interactive join chessclub" style="shape=umlFrame;whiteSpace=wrap;html=1;pointerEvents=0;recursiveResize=0;container=1;collapsible=0;width=160;" vertex="1" parent="1">
          <mxGeometry x="40" y="40" width="1580" height="270" as="geometry" />
        </mxCell>
        <mxCell id="kJQYeh6GCwO5_xTlgaux-2" value="User" style="shape=umlActor;verticalLabelPosition=bottom;verticalAlign=top;html=1;" vertex="1" parent="kJQYeh6GCwO5_xTlgaux-1">
          <mxGeometry x="20" y="50" width="30" height="60" as="geometry" />
        </mxCell>
        <mxCell id="kJQYeh6GCwO5_xTlgaux-3" style="edgeStyle=orthogonalEdgeStyle;rounded=0;orthogonalLoop=1;jettySize=auto;html=1;entryX=0;entryY=0.5;entryDx=0;entryDy=0;" edge="1" parent="kJQYeh6GCwO5_xTlgaux-1" source="kJQYeh6GCwO5_xTlgaux-5" target="kJQYeh6GCwO5_xTlgaux-14">
          <mxGeometry relative="1" as="geometry" />
        </mxCell>
        <mxCell id="kJQYeh6GCwO5_xTlgaux-4" value="2: joinClub(clubname:String)" style="edgeLabel;html=1;align=center;verticalAlign=middle;resizable=0;points=[];" vertex="1" connectable="0" parent="kJQYeh6GCwO5_xTlgaux-3">
          <mxGeometry x="-0.0318" y="-1" relative="1" as="geometry">
            <mxPoint as="offset" />
          </mxGeometry>
        </mxCell>
        <mxCell id="kJQYeh6GCwO5_xTlgaux-5" value="ChessClubController" style="html=1;align=center;verticalAlign=middle;dashed=0;whiteSpace=wrap;" vertex="1" parent="kJQYeh6GCwO5_xTlgaux-1">
          <mxGeometry x="214" y="50" width="160" height="70" as="geometry" />
        </mxCell>
        <mxCell id="kJQYeh6GCwO5_xTlgaux-6" style="edgeStyle=orthogonalEdgeStyle;rounded=0;orthogonalLoop=1;jettySize=auto;html=1;exitX=0.5;exitY=0.5;exitDx=0;exitDy=0;exitPerimeter=0;entryX=-0.004;entryY=0.429;entryDx=0;entryDy=0;entryPerimeter=0;" edge="1" parent="kJQYeh6GCwO5_xTlgaux-1" source="kJQYeh6GCwO5_xTlgaux-2" target="kJQYeh6GCwO5_xTlgaux-5">
          <mxGeometry relative="1" as="geometry" />
        </mxCell>
        <mxCell id="kJQYeh6GCwO5_xTlgaux-7" value="1: joinClub(clubName:String)" style="edgeLabel;html=1;align=center;verticalAlign=middle;resizable=0;points=[];" vertex="1" connectable="0" parent="kJQYeh6GCwO5_xTlgaux-6">
          <mxGeometry x="-0.0255" y="-1" relative="1" as="geometry">
            <mxPoint as="offset" />
          </mxGeometry>
        </mxCell>
        <mxCell id="kJQYeh6GCwO5_xTlgaux-8" style="edgeStyle=orthogonalEdgeStyle;rounded=0;orthogonalLoop=1;jettySize=auto;html=1;entryX=0;entryY=0.5;entryDx=0;entryDy=0;" edge="1" parent="kJQYeh6GCwO5_xTlgaux-1" source="kJQYeh6GCwO5_xTlgaux-14" target="kJQYeh6GCwO5_xTlgaux-15">
          <mxGeometry relative="1" as="geometry" />
        </mxCell>
        <mxCell id="kJQYeh6GCwO5_xTlgaux-9" value="3.1: chessClubRepository.save(User user, club: ChessClub)" style="edgeLabel;html=1;align=center;verticalAlign=middle;resizable=0;points=[];" vertex="1" connectable="0" parent="kJQYeh6GCwO5_xTlgaux-8">
          <mxGeometry x="0.0076" y="-2" relative="1" as="geometry">
            <mxPoint as="offset" />
          </mxGeometry>
        </mxCell>
        <mxCell id="kJQYeh6GCwO5_xTlgaux-10" style="edgeStyle=orthogonalEdgeStyle;rounded=0;orthogonalLoop=1;jettySize=auto;html=1;exitX=1;exitY=1;exitDx=0;exitDy=0;" edge="1" parent="kJQYeh6GCwO5_xTlgaux-1" source="kJQYeh6GCwO5_xTlgaux-14" target="kJQYeh6GCwO5_xTlgaux-16">
          <mxGeometry relative="1" as="geometry" />
        </mxCell>
        <mxCell id="kJQYeh6GCwO5_xTlgaux-11" value="3.2: userRepository.save(User user, clubId: Long)" style="edgeLabel;html=1;align=center;verticalAlign=middle;resizable=0;points=[];" vertex="1" connectable="0" parent="kJQYeh6GCwO5_xTlgaux-10">
          <mxGeometry x="-0.0318" y="1" relative="1" as="geometry">
            <mxPoint as="offset" />
          </mxGeometry>
        </mxCell>
        <mxCell id="kJQYeh6GCwO5_xTlgaux-12" style="edgeStyle=orthogonalEdgeStyle;rounded=0;orthogonalLoop=1;jettySize=auto;html=1;entryX=0;entryY=0.25;entryDx=0;entryDy=0;exitX=0.806;exitY=0.014;exitDx=0;exitDy=0;exitPerimeter=0;" edge="1" parent="kJQYeh6GCwO5_xTlgaux-1" source="kJQYeh6GCwO5_xTlgaux-14" target="kJQYeh6GCwO5_xTlgaux-17">
          <mxGeometry relative="1" as="geometry" />
        </mxCell>
        <mxCell id="kJQYeh6GCwO5_xTlgaux-13" value="3.3: updateChessClubChat(clubName:String)" style="edgeLabel;html=1;align=center;verticalAlign=middle;resizable=0;points=[];" vertex="1" connectable="0" parent="kJQYeh6GCwO5_xTlgaux-12">
          <mxGeometry x="-0.0487" relative="1" as="geometry">
            <mxPoint y="1" as="offset" />
          </mxGeometry>
        </mxCell>
        <mxCell id="kJQYeh6GCwO5_xTlgaux-14" value="ChessClubService" style="html=1;align=center;verticalAlign=middle;dashed=0;whiteSpace=wrap;" vertex="1" parent="kJQYeh6GCwO5_xTlgaux-1">
          <mxGeometry x="570" y="50" width="160" height="70" as="geometry" />
        </mxCell>
        <mxCell id="kJQYeh6GCwO5_xTlgaux-15" value="ChessClubRepository:&lt;br&gt;Database" style="html=1;align=center;verticalAlign=middle;dashed=0;whiteSpace=wrap;" vertex="1" parent="kJQYeh6GCwO5_xTlgaux-1">
          <mxGeometry x="1110" y="95" width="160" height="70" as="geometry" />
        </mxCell>
        <mxCell id="kJQYeh6GCwO5_xTlgaux-16" value="UserRepository:&lt;br&gt;Database" style="html=1;align=center;verticalAlign=middle;dashed=0;whiteSpace=wrap;" vertex="1" parent="kJQYeh6GCwO5_xTlgaux-1">
          <mxGeometry x="980" y="195" width="160" height="70" as="geometry" />
        </mxCell>
        <mxCell id="kJQYeh6GCwO5_xTlgaux-17" value="ChatService" style="html=1;align=center;verticalAlign=middle;dashed=0;whiteSpace=wrap;" vertex="1" parent="kJQYeh6GCwO5_xTlgaux-1">
          <mxGeometry x="1000" width="160" height="70" as="geometry" />
        </mxCell>
        <mxCell id="kJQYeh6GCwO5_xTlgaux-18" value="ChessClubRepository:&lt;br&gt;Database" style="html=1;align=center;verticalAlign=middle;dashed=0;whiteSpace=wrap;" vertex="1" parent="kJQYeh6GCwO5_xTlgaux-1">
          <mxGeometry x="1370" y="10" width="160" height="70" as="geometry" />
        </mxCell>
        <mxCell id="kJQYeh6GCwO5_xTlgaux-19" style="edgeStyle=orthogonalEdgeStyle;rounded=0;orthogonalLoop=1;jettySize=auto;html=1;entryX=0;entryY=0.5;entryDx=0;entryDy=0;" edge="1" parent="kJQYeh6GCwO5_xTlgaux-1" source="kJQYeh6GCwO5_xTlgaux-17" target="kJQYeh6GCwO5_xTlgaux-18">
          <mxGeometry relative="1" as="geometry" />
        </mxCell>
        <mxCell id="kJQYeh6GCwO5_xTlgaux-20" value="3.4: chatRepository.save(chat)" style="edgeLabel;html=1;align=center;verticalAlign=middle;resizable=0;points=[];" vertex="1" connectable="0" parent="kJQYeh6GCwO5_xTlgaux-19">
          <mxGeometry x="0.0078" y="-2" relative="1" as="geometry">
            <mxPoint x="-1" y="-7" as="offset" />
          </mxGeometry>
        </mxCell>
      </root>
    </mxGraphModel>
  </diagram>
</mxfile>
